<svg width="128" height="128" viewBox="0 0 128 128" fill="none" xmlns="http://www.w3.org/2000/svg">
<g clip-path="url(#clip0_102_13)">
<rect width="128" height="128" rx="30" fill="url(#paint0_linear_102_13)"/>
<path d="M72.4947 52.1423C73.5895 53.4484 74.3745 55.234 74.8186 57.5059C71.7859 57.0344 68.5341 56.901 65.0831 57.1042L65.083 57.1042C59.8017 57.4167 55.4184 59.1586 52.4053 61.9676C49.385 64.7832 47.7721 68.6446 48.0037 73.1128C48.2393 77.6552 50.4464 81.5717 54.2094 84.1246L54.2095 84.1246C57.3818 86.2765 61.4499 87.3179 65.6581 87.0822L65.6582 87.0822C71.2159 86.7692 75.6185 84.5814 78.6889 80.559C80.8873 77.6796 82.3045 74.0153 82.9913 69.4896C85.1746 70.9874 86.786 72.876 87.7094 75.0893L87.7094 75.0894C89.4464 79.2505 89.5573 86.1215 84.0873 91.7371C79.271 96.6817 73.4833 98.8423 64.6188 98.91C54.7927 98.8345 47.4379 95.6017 42.6657 89.3676L42.6657 89.3675C38.1794 83.5082 35.8255 74.9939 35.7375 64C35.8261 53.0061 38.1794 44.4918 42.6664 38.6303L42.3183 38.3639L42.6664 38.6303C47.4385 32.3962 54.7927 29.1634 64.6194 29.0879C74.5176 29.1641 82.0073 32.4127 86.9675 38.6842C89.4057 41.767 91.2562 45.6595 92.4791 50.2219L92.6093 50.7076L93.0942 50.5746L100.132 48.6451L100.61 48.5141L100.483 48.0352C98.9687 42.2988 96.5816 37.3403 93.3229 33.2201C86.7049 24.8528 77.0327 20.5884 64.6475 20.5V20.5H64.6439L64.5949 20.5L64.5914 20.5C52.2298 20.5877 42.661 24.8699 36.2278 33.2732L36.2278 33.2732C30.5151 40.7363 27.5979 51.0806 27.5 63.9661H27.5V63.9699V64L27.5 64.0301L27.5 64.0339C27.5979 76.9194 30.5151 87.2637 36.2278 94.7268L36.6248 94.4228L36.2278 94.7268C42.661 103.13 52.2298 107.412 64.5914 107.5H64.5949L64.6439 107.5L64.6475 107.5C75.6321 107.422 83.4389 104.459 89.8686 97.8581C98.3013 89.2011 98.0496 78.3407 95.2644 71.6648L95.2643 71.6646C93.2568 66.8569 89.4372 62.9697 84.2471 60.4106C83.9712 60.2745 83.692 60.1425 83.41 60.0146C83.0401 53.9632 81.234 49.1357 78.1115 45.7929C74.9296 42.3866 70.4329 40.5779 64.8611 40.5411H64.8578H64.8575H64.8572H64.8569H64.8566H64.8563H64.856H64.8557H64.8555H64.8552H64.8549H64.8546H64.8543H64.854H64.8537H64.8534H64.8531H64.8528H64.8525H64.8523H64.852H64.8517H64.8514H64.8511H64.8508H64.8505H64.8502H64.8499H64.8496H64.8493H64.8491H64.8488H64.8485H64.8482H64.8479H64.8476H64.8473H64.847H64.8467H64.8464H64.8461H64.8459H64.8456H64.8453H64.845H64.8447H64.8444H64.8441H64.8438H64.8435H64.8432H64.8429H64.8427H64.8424H64.8421H64.8418H64.8415H64.8412H64.8409H64.8406H64.8403H64.84H64.8398H64.8395H64.8392H64.8389H64.8386H64.8383H64.838H64.8377H64.8374H64.8371H64.8368H64.8366H64.8363H64.836H64.8357H64.8354H64.8351H64.8348H64.8345H64.8342H64.8339H64.8337H64.8334H64.8331H64.8328H64.8325H64.8322H64.8319H64.8316H64.8313H64.831H64.8308H64.8305H64.8302H64.8299H64.8296H64.8293H64.829H64.8287H64.8284H64.8281H64.8279H64.8276H64.8273H64.827H64.8267H64.8264H64.8261H64.8258H64.8255H64.8252H64.825H64.8247H64.8244H64.8241H64.8238H64.8235H64.8232H64.8229H64.8226H64.8223H64.8221H64.8218H64.8215H64.8212H64.8209H64.8206H64.8203H64.82H64.8197H64.8194H64.8192H64.8189H64.8186H64.8183H64.818H64.8177H64.8174H64.8171H64.8168H64.8165H64.8163H64.816H64.8157H64.8154H64.8151H64.8148H64.8145H64.8142H64.8139H64.8137H64.8134H64.8131H64.8128H64.8125H64.8122H64.8119H64.8116H64.8113H64.811H64.8108H64.8105H64.8102H64.8099H64.8096H64.8093H64.809H64.8087H64.8084H64.8081H64.8079H64.8076H64.8073H64.807H64.8067H64.8064H64.8061H64.8058H64.8055H64.8053H64.805H64.8047H64.8044H64.8041H64.8038H64.8035H64.8032H64.8029H64.8027H64.8024H64.8021H64.8018H64.8015H64.8012H64.8009H64.8006H64.8003H64.8H64.7998H64.7995H64.7992H64.7989H64.7986H64.7983H64.798H64.7977H64.7974H64.7971H64.7969H64.7966H64.7963H64.796H64.7957H64.7954H64.7951H64.7948H64.7945H64.7943H64.794H64.7937H64.7934H64.7931H64.7928H64.7925H64.7922H64.7919H64.7917H64.7914H64.7911H64.7908H64.7905H64.7902H64.7899H64.7896H64.7893H64.789H64.7888H64.7885H64.7882H64.7879H64.7876H64.7873H64.787H64.7867H64.7864H64.7862H64.7859H64.7856H64.7853H64.785H64.7847H64.7844H64.7841H64.7838H64.7836H64.7833H64.783H64.7827H64.7824H64.7821H64.7818H64.7815H64.7812H64.7809H64.7807H64.7804H64.7801H64.7798H64.7795H64.7792H64.7789H64.7786H64.7783H64.7781H64.7778H64.7775H64.7772H64.7769H64.7766H64.7763H64.776H64.7757H64.7754H64.7752H64.7749H64.7746H64.7743H64.774H64.7737H64.7734H64.7731H64.7728H64.7726H64.7723H64.772H64.7717H64.7714H64.7711H64.7708H64.7705H64.7702H64.77H64.7697H64.7694H64.7691H64.7688H64.7685H64.7682H64.7679H64.7676H64.7673H64.7671H64.7668H64.7665H64.7662H64.7659H64.7656H64.7653H64.765H64.7647H64.7645H64.7642H64.7639H64.7636H64.7633H64.763H64.7627H64.7624H64.7621H64.7618H64.7616H64.7613H64.761H64.7607H64.7604H64.7601H64.7598H64.7595H64.7592H64.759H64.7587H64.7584H64.7581H64.7578H64.7575H64.7572H64.7569H64.7566H64.7563H64.7561H64.7558H64.7555H64.7552H64.7549H64.7546H64.7543H64.754H64.7537H64.7534H64.7532H64.7529H64.7526H64.7523H64.752H64.7517H64.7514H64.7511H64.7508H64.7506H64.7503H64.75H64.7497H64.7494H64.7491H64.7488H64.7485H64.7482H64.7479H64.7477H64.7474H64.7471H64.7468H64.7465H64.7462H64.7459H64.7456H64.7453H64.745H64.7448H64.7445H64.7442H64.7439H64.7436H64.7433H64.743H64.7427H64.7424H64.7421H64.7419H64.7416H64.7413H64.741H64.7407H64.7404H64.7401H64.7398H64.7395H64.7393H64.739H64.7387H64.7384H64.7381H64.7378H64.7375H64.7372H64.7369H64.7366H64.7363H64.7361H64.7358H64.7355H64.7352H64.7349H64.7346H64.7343H64.734H64.7337H64.7334H64.7332H64.7329H64.7326H64.7323H64.732H64.7317H64.7314H64.7311H64.7308H64.7305H64.7303H64.73H64.7297H64.7294H64.7291H64.7288H64.7285H64.7282H64.7279H64.7276H64.7273H64.7271H64.7268H64.7265H64.7262H64.7259H64.7256H64.7253H64.725H64.7247H64.7244H64.7242H64.7239H64.7236H64.7233H64.723H64.7227H64.7224H64.7221H64.7218H64.7215H64.7212H64.721H64.7207H64.7204H64.7201H64.7198H64.7195H64.7192H64.7189H64.7186H64.7183H64.718H64.7178H64.7175H64.7172H64.7169H64.7166H64.7163H64.716H64.7157H64.7154H64.7151H64.7148H64.7146H64.7143H64.714H64.7137H64.7134H64.7131H64.7128H64.7125H64.7122H64.7119H64.7116H64.7114H64.7111H64.7108H64.7105H64.7102H64.7099H64.7096H64.7093C58.0184 40.5411 52.4216 43.4838 48.9805 48.8497L48.7221 49.2526L49.1133 49.5283L55.1195 53.7617L55.5464 54.0627L55.8284 53.623C58.1965 49.931 61.9109 49.1283 64.7127 49.1283H64.7129H64.7131H64.7133H64.7135H64.7137H64.7139H64.7141H64.7143H64.7145H64.7147H64.7149H64.7151H64.7153H64.7155H64.7157H64.7158H64.716H64.7162H64.7164H64.7166H64.7168H64.717H64.7172H64.7174H64.7176H64.7178H64.718H64.7182H64.7184H64.7186H64.7188H64.719H64.7192H64.7194H64.7196H64.7198H64.72H64.7201H64.7203H64.7205H64.7207H64.7209H64.7211H64.7213H64.7215H64.7217H64.7219H64.7221H64.7223H64.7225H64.7227H64.7229H64.7231H64.7233H64.7235H64.7237H64.7239H64.7241H64.7243H64.7244H64.7246H64.7248H64.725H64.7252H64.7254H64.7256H64.7258H64.726H64.7262H64.7264H64.7266H64.7268H64.727H64.7272H64.7274H64.7276H64.7278H64.728H64.7282H64.7284H64.7286H64.7288H64.7289H64.7291H64.7293H64.7295H64.7297H64.7299H64.7301H64.7303H64.7305H64.7307H64.7309H64.7311H64.7313H64.7315H64.7317H64.7319H64.7321H64.7323H64.7325H64.7327H64.7329H64.7331H64.7332H64.7334H64.7336H64.7338H64.734H64.7342H64.7344H64.7346H64.7348H64.735H64.7352H64.7354H64.7356H64.7358H64.736H64.7362H64.7364H64.7366H64.7368H64.737H64.7372H64.7374H64.7376H64.7377H64.7379H64.7381H64.7383H64.7385H64.7387H64.7389H64.7391H64.7393H64.7395H64.7397H64.7399H64.7401H64.7403H64.7405H64.7407H64.7409H64.7411H64.7413H64.7415H64.7417H64.7419H64.7421H64.7422H64.7424H64.7426H64.7428H64.743H64.7432H64.7434H64.7436H64.7438H64.744H64.7442H64.7444H64.7446H64.7448H64.745H64.7452H64.7454H64.7456H64.7458H64.746H64.7462H64.7464H64.7465H64.7467H64.7469H64.7471H64.7473H64.7475H64.7477H64.7479H64.7481H64.7483H64.7485H64.7487H64.7489H64.7491H64.7493H64.7495H64.7497H64.7499H64.7501H64.7503H64.7505H64.7507H64.7509H64.751H64.7512H64.7514H64.7516H64.7518H64.752H64.7522H64.7524H64.7526H64.7528H64.753H64.7532H64.7534H64.7536H64.7538H64.754H64.7542H64.7544H64.7546H64.7548H64.755H64.7551H64.7553H64.7555H64.7557H64.7559H64.7561H64.7563H64.7565H64.7567H64.7569H64.7571H64.7573H64.7575H64.7577H64.7579H64.7581H64.7583H64.7585H64.7587H64.7589H64.7591H64.7593H64.7595H64.7596H64.7598H64.76H64.7602H64.7604H64.7606H64.7608H64.761H64.7612H64.7614H64.7616H64.7618H64.762H64.7622H64.7624H64.7626H64.7628H64.763H64.7632H64.7634H64.7636H64.7638H64.764H64.7641H64.7643H64.7645H64.7647H64.7649H64.7651H64.7653H64.7655H64.7657H64.7659H64.7661H64.7663H64.7665H64.7667H64.7669H64.7671H64.7673H64.7675H64.7677H64.7679H64.7681H64.7683H64.7684H64.7686H64.7688H64.769H64.7692H64.7694H64.7696H64.7698H64.77H64.7702H64.7704H64.7706H64.7708H64.771H64.7712H64.7714H64.7716H64.7718H64.772H64.7722H64.7724H64.7726H64.7728H64.7729H64.7731H64.7733H64.7735H64.7737H64.7739H64.7741H64.7743H64.7745H64.7747H64.7749H64.7751H64.7753H64.7755H64.7757H64.7759H64.7761H64.7763H64.7765H64.7767H64.7769H64.7771H64.7772H64.7774H64.7776H64.7778H64.778H64.7782H64.7784H64.7786H64.7788H64.779H64.7792H64.7794H64.7796H64.7798H64.78H64.7802H64.7804H64.7806H64.7808H64.781H64.7812H64.7814H64.7815H64.7817H64.7819H64.7821H64.7823H64.7825H64.7827H64.7829H64.7831H64.7833H64.7835H64.7837H64.7839H64.7841H64.7843H64.7845H64.7847H64.7849H64.7851H64.7853H64.7855H64.7857H64.7859H64.786H64.7862H64.7864H64.7866H64.7868H64.787H64.7872H64.7874H64.7876H64.7878H64.788H64.7882H64.7884H64.7886H64.7888H64.789H64.7892H64.7894H64.7896H64.7898H64.79H64.7902H64.7903H64.7905H64.7907H64.7909H64.7911H64.7913H64.7915H64.7917H64.7919H64.7921H64.7923H64.7925H64.7927H64.7929H64.7931H64.7933H64.7935H64.7937H64.7939H64.7941H64.7943H64.7945H64.7947H64.7948H64.795H64.7952H64.7954H64.7956H64.7958H64.796H64.7962H64.7964H64.7966H64.7968H64.797H64.7972H64.7974H64.7976H64.7978H64.798H64.7982H64.7984H64.7986H64.7988H64.799H64.7991H64.7993H64.7995H64.7997H64.7999H64.8001H64.8003H64.8005H64.8007H64.8009H64.8011H64.8013H64.8015H64.8017H64.8019H64.8021H64.8023H64.8025H64.8027H64.8029H64.8031H64.8033H64.8034H64.8036H64.8038H64.804H64.8042H64.8044H64.8046H64.8048H64.805H64.8052H64.8054H64.8056H64.8058H64.806H64.8062H64.8064H64.8066H64.8068H64.807H64.8072H64.8074H64.8076H64.8078H64.8079H64.8081H64.8083H64.8085H64.8087H64.8089H64.8091H64.8093H64.8095H64.8097H64.8099H64.8101H64.8103H64.8105H64.8107H64.8109H64.8111H64.8113C68.309 49.1518 70.8611 50.1934 72.4946 52.1423L72.8778 51.8211L72.4947 52.1423ZM65.2131 78.5093L65.2123 78.5093C63.0145 78.6364 60.7985 78.1901 59.1212 77.1971C57.4574 76.2119 56.3355 74.7015 56.229 72.6509C56.1497 71.1234 56.6752 69.5085 58.0917 68.2139C59.5155 66.9127 61.8831 65.8969 65.55 65.6798L65.5502 65.6798C66.397 65.6293 67.2282 65.6051 68.0444 65.6051C70.5625 65.6051 72.9234 65.8411 75.0814 66.2916C74.6132 71.4884 73.1875 74.4483 71.4286 76.1477C69.6248 77.8904 67.3893 78.3865 65.2131 78.5093Z" fill="white" stroke="white"/>
</g>
<defs>
<linearGradient id="paint0_linear_102_13" x1="31.5" y1="128" x2="96" y2="3.80725e-06" gradientUnits="userSpaceOnUse">
<stop offset="0.0625" stop-color="#7215BB"/>
<stop offset="0.567708" stop-color="#6B4AF0"/>
<stop offset="1" stop-color="#3D9BF1"/>
</linearGradient>
<clipPath id="clip0_102_13">
<rect width="128" height="128" fill="white"/>
</clipPath>
</defs>
</svg>
